Here is an episode of the Movie Magic TV series. It's about the forced prespective technique that used to create giant people, monsters and little as well.
You'll also see an extensive making of this techinique, for the HBO's ''Attack of the 50 Ft. Woman'', starring Daryl Hannah.
Ripped from a Greek TV network. 

 
http://www.imdb.com/title/tt0108865/



SPECS

Subs                             : Greek hard subs

Video
Format                           : MPEG-4 Visual
Codec ID                         : XVID
Codec ID/Hint                    : XviD
Duration                         : 21mn 51s
Bit rate                         : 2 584 Kbps
Width                            : 640 pixels
Height                           : 480 pixels
Display aspect ratio             : 4:3
Frame rate                       : 25.000 fps
Color space                      : YUV
Chroma subsampling               : 4:2:0
Bit depth                        : 8 bits
Scan type                        : Progressive
Compression mode                 : Lossy
Bits/(Pixel*Frame)               : 0.336
Stream size                      : 404 MiB (93%)

Audio
Format                           : MPEG Audio
Format version                   : Version 1
Format profile                   : Layer 3
Mode                             : Joint stereo
Mode extension                   : MS Stereo
Codec ID/Hint                    : MP3
Duration                         : 21mn 51s
Bit rate mode                    : Constant
Bit rate                         : 192 Kbps
Channel(s)                       : 2 channels
Sampling rate                    : 48.0 KHz
Compression mode                 : Lossy
Stream size                      : 30.0 MiB (7%)



screenshots 
http://img268.imageshack.us/img268/9189/77557624.jpg 
http://img84.imageshack.us/img84/5775/82272822.jpg 
http://img4.imageshack.us/img4/6641/49579448.jpg 
http://img89.imageshack.us/img89/6526/16016510.jpg


ENJOY AND SEED FOR THE OTHERS.